{
  "asset": {
    "version": "2.0",
    "generator": "cocos-vfx-importer-plus-obj2gltf"
  },
  "buffers": [
    {
      "uri": "ice04_Mesh_b797c8c7.bin",
      "byteLength": 7064
    }
  ],
  "bufferViews": [
    {
      "buffer": 0,
      "byteOffset": 0,
      "byteLength": 2316,
      "target": 34962
    },
    {
      "buffer": 0,
      "byteOffset": 2316,
      "byteLength": 2316,
      "target": 34962
    },
    {
      "buffer": 0,
      "byteOffset": 4632,
      "byteLength": 1544,
      "target": 34962
    },
    {
      "buffer": 0,
      "byteOffset": 6176,
      "byteLength": 888,
      "target": 34963
    }
  ],
  "accessors": [
    {
      "bufferView": 0,
      "componentType": 5126,
      "count": 193,
      "type": "VEC3",
      "max": [
        0.988472,
        5.327499,
        1.018089
      ],
      "min": [
        -0.813631,
        0.061846,
        -0.762758
      ]
    },
    {
      "bufferView": 1,
      "componentType": 5126,
      "count": 193,
      "type": "VEC3"
    },
    {
      "bufferView": 2,
      "componentType": 5126,
      "count": 193,
      "type": "VEC2"
    },
    {
      "bufferView": 3,
      "componentType": 5123,
      "count": 444,
      "type": "SCALAR"
    }
  ],
  "meshes": [
    {
      "name": "ice04_Mesh_b797c8c7",
      "primitives": [
        {
          "attributes": {
            "POSITION": 0,
            "NORMAL": 1,
            "TEXCOORD_0": 2
          },
          "indices": 3,
          "mode": 4
        }
      ]
    }
  ],
  "nodes": [
    {
      "mesh": 0,
      "name": "ice04_Mesh_b797c8c7"
    }
  ],
  "scenes": [
    {
      "nodes": [
        0
      ]
    }
  ],
  "scene": 0
}
