{
  "asset": {
    "version": "2.0",
    "generator": "cocos-vfx-importer-plus-obj2gltf"
  },
  "buffers": [
    {
      "uri": "WaterSphere_1a255df2.bin",
      "byteLength": 36608
    }
  ],
  "bufferViews": [
    {
      "buffer": 0,
      "byteOffset": 0,
      "byteLength": 10308,
      "target": 34962
    },
    {
      "buffer": 0,
      "byteOffset": 10308,
      "byteLength": 10308,
      "target": 34962
    },
    {
      "buffer": 0,
      "byteOffset": 20616,
      "byteLength": 6872,
      "target": 34962
    },
    {
      "buffer": 0,
      "byteOffset": 27488,
      "byteLength": 9120,
      "target": 34963
    }
  ],
  "accessors": [
    {
      "bufferView": 0,
      "componentType": 5126,
      "count": 859,
      "type": "VEC3",
      "max": [
        1.084475,
        1.073327,
        1.08552
      ],
      "min": [
        -1.051889,
        -1.064893,
        -1.020655
      ]
    },
    {
      "bufferView": 1,
      "componentType": 5126,
      "count": 859,
      "type": "VEC3"
    },
    {
      "bufferView": 2,
      "componentType": 5126,
      "count": 859,
      "type": "VEC2"
    },
    {
      "bufferView": 3,
      "componentType": 5123,
      "count": 4560,
      "type": "SCALAR"
    }
  ],
  "meshes": [
    {
      "name": "WaterSphere_1a255df2",
      "primitives": [
        {
          "attributes": {
            "POSITION": 0,
            "NORMAL": 1,
            "TEXCOORD_0": 2
          },
          "indices": 3,
          "mode": 4
        }
      ]
    }
  ],
  "nodes": [
    {
      "mesh": 0,
      "name": "WaterSphere_1a255df2"
    }
  ],
  "scenes": [
    {
      "nodes": [
        0
      ]
    }
  ],
  "scene": 0
}
